<mxfile host="app.diagrams.net" agent="Mozilla/5.0 (Windows NT 10.0; Win64; x64) AppleWebKit/537.36 (KHTML, like Gecko) Chrome/139.0.0.0 Safari/537.36 Edg/139.0.0.0" version="28.1.2">
  <diagram name="第 1 页" id="1CGsNUBVxWWmNCm2JcKJ">
    <mxGraphModel dx="776" dy="1138" grid="1" gridSize="10" guides="1" tooltips="1" connect="1" arrows="1" fold="1" page="1" pageScale="1" pageWidth="5000" pageHeight="5000" math="0" shadow="0">
      <root>
        <mxCell id="0" />
        <mxCell id="1" parent="0" />
        <mxCell id="tHeqBvzN5bstOn45mvd8-9" style="edgeStyle=orthogonalEdgeStyle;rounded=0;orthogonalLoop=1;jettySize=auto;html=1;entryX=0.5;entryY=0;entryDx=0;entryDy=0;fontSize=16;" edge="1" parent="1" source="tHeqBvzN5bstOn45mvd8-1" target="tHeqBvzN5bstOn45mvd8-2">
          <mxGeometry relative="1" as="geometry" />
        </mxCell>
        <mxCell id="tHeqBvzN5bstOn45mvd8-1" value="开始" style="rounded=1;whiteSpace=wrap;html=1;fontSize=16;" vertex="1" parent="1">
          <mxGeometry x="200" y="80" width="120" height="40" as="geometry" />
        </mxCell>
        <mxCell id="tHeqBvzN5bstOn45mvd8-10" style="edgeStyle=orthogonalEdgeStyle;rounded=0;orthogonalLoop=1;jettySize=auto;html=1;entryX=0.5;entryY=0;entryDx=0;entryDy=0;fontSize=16;" edge="1" parent="1" source="tHeqBvzN5bstOn45mvd8-2" target="tHeqBvzN5bstOn45mvd8-4">
          <mxGeometry relative="1" as="geometry" />
        </mxCell>
        <mxCell id="tHeqBvzN5bstOn45mvd8-2" value="卖家填写商品信息表单" style="rounded=0;whiteSpace=wrap;html=1;fontSize=16;" vertex="1" parent="1">
          <mxGeometry x="200" y="160" width="120" height="40" as="geometry" />
        </mxCell>
        <mxCell id="tHeqBvzN5bstOn45mvd8-5" style="edgeStyle=orthogonalEdgeStyle;rounded=0;orthogonalLoop=1;jettySize=auto;html=1;entryX=0;entryY=0.5;entryDx=0;entryDy=0;fontSize=16;" edge="1" parent="1" source="tHeqBvzN5bstOn45mvd8-4" target="tHeqBvzN5bstOn45mvd8-2">
          <mxGeometry relative="1" as="geometry">
            <Array as="points">
              <mxPoint x="140" y="260" />
              <mxPoint x="140" y="180" />
            </Array>
          </mxGeometry>
        </mxCell>
        <mxCell id="tHeqBvzN5bstOn45mvd8-6" value="否" style="edgeLabel;html=1;align=center;verticalAlign=middle;resizable=0;points=[];fontSize=16;" vertex="1" connectable="0" parent="tHeqBvzN5bstOn45mvd8-5">
          <mxGeometry x="-0.1875" y="2" relative="1" as="geometry">
            <mxPoint as="offset" />
          </mxGeometry>
        </mxCell>
        <mxCell id="tHeqBvzN5bstOn45mvd8-11" style="edgeStyle=orthogonalEdgeStyle;rounded=0;orthogonalLoop=1;jettySize=auto;html=1;entryX=0.5;entryY=0;entryDx=0;entryDy=0;fontSize=16;" edge="1" parent="1" source="tHeqBvzN5bstOn45mvd8-4" target="tHeqBvzN5bstOn45mvd8-7">
          <mxGeometry relative="1" as="geometry" />
        </mxCell>
        <mxCell id="tHeqBvzN5bstOn45mvd8-4" value="数据是否正确" style="rhombus;whiteSpace=wrap;html=1;fontSize=16;" vertex="1" parent="1">
          <mxGeometry x="160" y="240" width="200" height="40" as="geometry" />
        </mxCell>
        <mxCell id="tHeqBvzN5bstOn45mvd8-15" value="" style="edgeStyle=orthogonalEdgeStyle;rounded=0;orthogonalLoop=1;jettySize=auto;html=1;fontSize=16;" edge="1" parent="1" source="tHeqBvzN5bstOn45mvd8-7" target="tHeqBvzN5bstOn45mvd8-4">
          <mxGeometry relative="1" as="geometry" />
        </mxCell>
        <mxCell id="tHeqBvzN5bstOn45mvd8-16" value="是" style="edgeLabel;html=1;align=center;verticalAlign=middle;resizable=0;points=[];fontSize=16;" vertex="1" connectable="0" parent="tHeqBvzN5bstOn45mvd8-15">
          <mxGeometry x="0.1" y="-2" relative="1" as="geometry">
            <mxPoint as="offset" />
          </mxGeometry>
        </mxCell>
        <mxCell id="tHeqBvzN5bstOn45mvd8-17" style="edgeStyle=orthogonalEdgeStyle;rounded=0;orthogonalLoop=1;jettySize=auto;html=1;entryX=0;entryY=0.5;entryDx=0;entryDy=0;fontSize=16;" edge="1" parent="1" source="tHeqBvzN5bstOn45mvd8-7" target="tHeqBvzN5bstOn45mvd8-12">
          <mxGeometry relative="1" as="geometry" />
        </mxCell>
        <mxCell id="tHeqBvzN5bstOn45mvd8-7" value="写入数据库" style="rounded=0;whiteSpace=wrap;html=1;fontSize=16;" vertex="1" parent="1">
          <mxGeometry x="200" y="320" width="120" height="40" as="geometry" />
        </mxCell>
        <mxCell id="tHeqBvzN5bstOn45mvd8-8" style="edgeStyle=orthogonalEdgeStyle;rounded=0;orthogonalLoop=1;jettySize=auto;html=1;exitX=0.5;exitY=1;exitDx=0;exitDy=0;entryX=0.583;entryY=0.75;entryDx=0;entryDy=0;entryPerimeter=0;fontSize=16;" edge="1" parent="1" source="tHeqBvzN5bstOn45mvd8-1" target="tHeqBvzN5bstOn45mvd8-1">
          <mxGeometry relative="1" as="geometry" />
        </mxCell>
        <mxCell id="tHeqBvzN5bstOn45mvd8-18" style="edgeStyle=orthogonalEdgeStyle;rounded=0;orthogonalLoop=1;jettySize=auto;html=1;entryX=0.5;entryY=0;entryDx=0;entryDy=0;fontSize=16;" edge="1" parent="1" source="tHeqBvzN5bstOn45mvd8-12" target="tHeqBvzN5bstOn45mvd8-14">
          <mxGeometry relative="1" as="geometry" />
        </mxCell>
        <mxCell id="tHeqBvzN5bstOn45mvd8-12" value="返回状态&lt;br&gt;待审核" style="rounded=0;whiteSpace=wrap;html=1;fontSize=16;" vertex="1" parent="1">
          <mxGeometry x="440" y="80" width="120" height="40" as="geometry" />
        </mxCell>
        <mxCell id="tHeqBvzN5bstOn45mvd8-14" value="结束" style="rounded=1;whiteSpace=wrap;html=1;fontSize=16;" vertex="1" parent="1">
          <mxGeometry x="440" y="160" width="120" height="40" as="geometry" />
        </mxCell>
      </root>
    </mxGraphModel>
  </diagram>
</mxfile>
